<svg width="64" height="18" viewBox="0 0 64 18" fill="none" xmlns="http://www.w3.org/2000/svg">
<path d="M13.8106 9.78937L10.0582 16.2161L6.30572 9.78937H13.8106ZM14.8159 9.21497H5.29639L10.0582 17.3529L14.8159 9.21497Z" fill="white"/>
<path d="M20.3347 1.796L24.0871 8.22273H16.5822L20.3347 1.796ZM20.3347 0.647217L15.5729 8.78507H25.0964L20.3347 0.647217Z" fill="white"/>
<path d="M10.0583 1.27783L14.2462 8.43562H5.86218L10.0583 1.27783Z" fill="white"/>
<path d="M15.3247 9.99829L19.5167 17.3529H10.9332L15.1944 9.99829H15.3247Z" fill="white"/>
<path d="M16.2322 9.55237L20.3346 16.7945L24.4941 9.55237H16.2322Z" fill="white"/>
<path d="M42.521 1.83838V16.0129H39.9325L33.7657 7.09153H39.4134L33.6619 16.0129H30.665V1.83838H33.2951L39.4134 10.7528L33.7657 7.09153L39.5379 1.83838H42.521Z" fill="#F8F8F8"/>
<path d="M47.4484 10.0123V16.1582H44.5V5.52735H47.31V7.40298H47.4346C47.6699 6.78469 48.0644 6.2956 48.6181 5.9357C49.1718 5.57118 49.8431 5.38893 50.6321 5.38893C51.3704 5.38893 52.0141 5.55042 52.5631 5.87341C53.1122 6.19639 53.539 6.65781 53.8436 7.25764C54.1481 7.85286 54.3003 8.56343 54.3003 9.38935V16.1582H51.3519V9.91536C51.3566 9.26477 51.1904 8.75722 50.8536 8.39271C50.5168 8.02358 50.0531 7.83902 49.4625 7.83902C49.0657 7.83902 48.715 7.92438 48.4104 8.0951C48.1105 8.26582 47.8752 8.51498 47.7045 8.84258C47.5384 9.16557 47.453 9.55546 47.4484 10.0123Z" fill="#F8F8F8"/>
<path d="M62.9021 5.38079V7.59556H56.5V5.38079H62.9021ZM57.9534 2.83381H60.9018V12.7449C60.9018 13.0171 60.9434 13.2294 61.0264 13.3816C61.1095 13.5293 61.2248 13.6331 61.3725 13.6931C61.5248 13.7531 61.7001 13.7831 61.8985 13.7831C62.0369 13.7831 62.1753 13.7715 62.3138 13.7485C62.4522 13.7208 62.5583 13.7 62.6321 13.6862L63.0959 15.8802C62.9482 15.9263 62.7406 15.9794 62.4729 16.0393C62.2053 16.1039 61.88 16.1432 61.4971 16.157C60.7865 16.1847 60.1636 16.0901 59.6284 15.8732C59.0977 15.6564 58.6848 15.3196 58.3895 14.8628C58.0942 14.406 57.9488 13.8292 57.9534 13.1325V2.83381Z" fill="#F8F8F8"/>
</svg>
